<svg width="64" height="64" viewBox="0 0 64 64" fill="none" xmlns="http://www.w3.org/2000/svg">
  <defs>
    <linearGradient id="s" x1="32" y1="2" x2="32" y2="44" gradientUnits="userSpaceOnUse">
      <stop stop-color="#F6B26B"/>
      <stop offset="0.55" stop-color="#E8873A"/>
      <stop offset="1" stop-color="#D5732A"/>
    </linearGradient>
  </defs>
  <rect x="1" y="1" width="62" height="62" rx="15" fill="url(#s)"/>
  <path d="M32 11c-2.5 4.5-9 8-16.5 8.5 4 2.6 9 3.4 12.6 2.4l-2.7 7.2c2.9-1.2 5.4-3.4 6.6-6 1.2 2.6 3.7 4.8 6.6 6l-2.7-7.2c3.6 1 8.6.2 12.6-2.4C41 19 34.5 15.5 32 11z" fill="#1F3D2E"/>
  <path d="M1 45L16 28l10 11 7-7 16 14 14-11v13H1V45z" fill="#2C5741"/>
  <path d="M1 50l13-12 9 10 8-8 17 13h15v10H1V50z" fill="#1F3D2E"/>
  <path d="M1 54h62v9H1z" fill="#5B8FA8"/>
  <path d="M20 56.5h24v2H20z" fill="#8FB4C4" opacity="0.8"/>
</svg>
